<?xml version="1.0" encoding="utf-8"?>
<!-- Generator: Adobe Illustrator 24.1.2, SVG Export Plug-In . SVG Version: 6.00 Build 0)  -->
<svg version="1.1" id="Camada_1" xmlns="http://www.w3.org/2000/svg" xmlns:xlink="http://www.w3.org/1999/xlink" x="0px" y="0px"
	 viewBox="0 0 16 16" style="enable-background:new 0 0 16 16;" xml:space="preserve">
<style type="text/css">
	.st0{fill-rule:evenodd;clip-rule:evenodd;fill:#FFFFFF;}
</style>
<path class="st0" d="M2,13.5V7h1v6.5C3,13.8,3.2,14,3.5,14h9c0.3,0,0.5-0.2,0.5-0.5V7h1v6.5c0,0.8-0.7,1.5-1.5,1.5h-9
	C2.7,15,2,14.3,2,13.5z M13,2.5V6l-2-2V2.5C11,2.2,11.2,2,11.5,2h1C12.8,2,13,2.2,13,2.5z"/>
<path class="st0" d="M7.3,1.5c0.4-0.4,1-0.4,1.4,0l6.6,6.6c0.2,0.2,0.2,0.5,0,0.7s-0.5,0.2-0.7,0L8,2.2L1.4,8.9C1.2,9,0.8,9,0.6,8.9
	s-0.2-0.5,0-0.7L7.3,1.5z"/>
</svg>
